<svg width="896" height="1024" xmlns="http://www.w3.org/2000/svg">

 <g>
  <title>background</title>
  <rect fill="none" id="canvas_background" height="402" width="582" y="-1" x="-1"/>
 </g>
 <g>
  <title>Layer 1</title>
  <path fill="#ffffff" id="svg_1" d="m694.875,448c-28.5,-110.219 -127.75,-192 -246.875,-192c-119.094,0 -218.375,81.781 -246.906,192l-201.094,0l0,128l201.094,0c28.531,110.25 127.812,192 246.906,192c119.125,0 218.375,-81.75 246.875,-192l201.125,0l0,-128l-201.125,0zm-246.875,192c-70.656,0 -128,-57.375 -128,-128c0,-70.656 57.344,-128 128,-128c70.625,0 128,57.344 128,128c0,70.625 -57.375,128 -128,128z"/>
 </g>
</svg>