<svg width="896" height="1024" xmlns="http://www.w3.org/2000/svg">

 <g>
  <title>background</title>
  <rect fill="none" id="canvas_background" height="402" width="582" y="-1" x="-1"/>
 </g>
 <g>
  <title>Layer 1</title>
  <path stroke="null" fill="#ffffff" id="svg_1" d="m832,712.332697l0,-396.508017c0,-189.988284 -192,-189.494808 -192,-189.494808l-64,0l0,-126.329872l-192,189.494808l192,189.494808l0,-126.329872c0,0 26.688,0 64,0c56.438,0 64,63.164936 64,63.164936l0,396.508017c-38.125,21.898494 -64,62.054615 -64,108.811472c0,69.703494 57.375,126.329872 128,126.329872s128,-56.626378 128,-126.329872c0,-46.633488 -25.875,-86.912978 -64,-108.811472zm-64,171.976408c-35.312,0 -64,-28.251505 -64,-63.164936c0,-34.851253 28.688,-63.164936 64,-63.164936c35.375,0 64,28.313683 64,63.164936c0,34.913431 -28.625,63.164936 -64,63.164936zm-704,-572.832936l0,396.477421c0,189.988284 192,189.494808 192,189.494808l64,0l0,126.329872l192,-189.494808l-192,-189.494808l0,126.329872c0,0 -26.688,0 -64,0c-56.438,0 -64,-63.164936 -64,-63.164936l0,-396.477421c38.156,-21.929089 64,-62.08521 64,-108.842067c0,-69.734089 -57.344,-126.329872 -128,-126.329872s-128,56.595783 -128,126.329872c0,46.664083 25.844,86.912978 64,108.842067zm64,-43.025191c-35.312,0 -64,-28.220909 -64,-63.164936c0,-34.851253 28.688,-63.164936 64,-63.164936c35.406,0 64,28.313683 64,63.164936c0,34.944027 -28.594,63.164936 -64,63.164936z"/>
 </g>
</svg>