<svg width="768" height="1024" xmlns="http://www.w3.org/2000/svg">

 <g>
  <title>background</title>
  <rect fill="none" id="canvas_background" height="402" width="582" y="-1" x="-1"/>
 </g>
 <g>
  <title>Layer 1</title>
  <path fill="#ffffff" id="svg_1" d="m448,320l-192,256l128,0l0,448l128,0l0,-448l128,0l-192,-256zm-192,0l64,0l0,-64l-64,0l0,64zm64,-192l-64,0l0,64l64,0l0,-64zm384,-128l-640,0c0,0 -64,0 -64,64l0,768c0,64 64,64 64,64l128,0l0,128l128,-128l0,-128l-128,0l0,64l-64,0c-64,0 -64,-64 -64,-64l0,-64l256,0l0,-64l-128,0l0,-576l513,0l-1,576l-128,0l0,64l128,0l0,64c0,61.625 -64,64 -64,64l-64,0l0,64l128,0c0,0 64,-1.125 64,-64l0,-768c0,-64 -64,-64 -64,-64z"/>
 </g>
</svg>