<svg width="512" height="512" xmlns="http://www.w3.org/2000/svg">

 <g>
  <title>background</title>
  <rect fill="none" id="canvas_background" height="402" width="582" y="-1" x="-1"/>
 </g>
 <g>
  <title>Layer 1</title>
  <path fill="#ffffff" stroke="null" id="svg_1" d="m480.736175,203.846157l-20.212691,0c-16.489301,0 -30.319037,-14.123418 -30.319037,-30.886727c0,-8.447652 3.590412,-16.103336 9.973367,-21.779103l13.031867,-12.671478c12.898888,-12.671478 12.898888,-33.394624 0,-46.066102l-29.654145,-29.170798c-5.851042,-5.807761 -14.494627,-9.239619 -23.27119,-9.239619c-8.776563,0 -17.28717,3.431859 -23.27119,9.239619l-12.499954,12.407489c-5.98402,6.599728 -13.962714,10.163581 -22.606299,10.163581c-17.021213,0 -31.249884,-13.727434 -31.249884,-29.962765l0,-20.195168c0,-17.819266 -14.494627,-33.130635 -32.579666,-33.130635l-40.425382,0c-18.085039,0 -32.446688,15.179375 -32.446688,33.130635l0,20.063173c0,16.235331 -14.228671,29.962765 -31.249884,29.962765c-8.510607,0 -16.356322,-3.563853 -22.074386,-9.767598l-12.898888,-12.671478c-5.851042,-5.939755 -14.494627,-9.239619 -23.27119,-9.239619s-17.28717,3.431859 -23.27119,9.239619l-29.920102,29.038803c-12.76591,12.671478 -12.76591,33.394624 0,45.934107l12.499954,12.407489c6.648912,5.939755 10.372302,13.859429 10.372302,22.307081c0,16.895304 -13.829736,30.886727 -30.319037,30.886727l-20.212691,0c-18.218018,0 -33.510514,14.123418 -33.510514,32.074678l0,20.063173l0,20.063173c0,17.819266 15.292496,32.074678 33.510514,32.074678l20.212691,0c16.489301,0 30.319037,14.123418 30.319037,30.886727c0,8.447652 -3.72339,16.367326 -10.372302,22.307081l-12.499954,12.275494c-12.76591,12.671478 -12.76591,33.394624 0,45.934107l29.654145,29.302793c5.851042,5.939755 14.494627,9.239619 23.27119,9.239619c8.776563,0 17.28717,-3.431859 23.27119,-9.239619l12.898888,-12.671478c5.585086,-6.203744 13.563779,-9.767598 22.074386,-9.767598c17.021213,0 31.249884,13.727434 31.249884,29.962765l0,20.063173c0,17.819266 14.361649,33.130635 32.579666,33.130635l40.425382,0c18.085039,0 32.446688,-15.179375 32.446688,-33.130635l0,-20.063173c0,-16.235331 14.228671,-29.962765 31.249884,-29.962765c8.510607,0 16.489301,3.695848 22.606299,10.163581l12.499954,12.407489c5.98402,5.807761 14.494627,9.239619 23.27119,9.239619c8.776563,0 17.28717,-3.431859 23.27119,-9.239619l29.654145,-29.302793c12.76591,-12.671478 12.76591,-33.394624 0,-46.066102l-13.031867,-12.671478c-6.382955,-5.675766 -9.973367,-13.463445 -9.973367,-21.779103c0,-16.895304 13.829736,-30.886727 30.319037,-30.886727l20.212691,0c18.085039,0 30.983928,-14.123418 30.983928,-32.074678l0,-20.195168l0,-20.063173c0.265956,-17.95126 -12.632932,-32.074678 -30.717971,-32.074678zm-116.621908,52.137852l0,0c0,58.209601 -47.473228,105.595649 -106.382584,105.595649c-58.909356,0 -106.382584,-47.386047 -106.382584,-105.595649l0,0l0,0c0,-58.209601 47.473228,-105.595649 106.382584,-105.595649c58.909356,0 106.382584,47.386047 106.382584,105.595649l0,0z"/>
 </g>
</svg>