<svg width="64" height="64" xmlns="http://www.w3.org/2000/svg">

 <g>
  <title>background</title>
  <rect fill="none" id="canvas_background" height="402" width="582" y="-1" x="-1"/>
 </g>
 <g>
  <title>Layer 1</title>
  <path fill="#ffffff" stroke="null" id="svg_1" d="m58.545099,7.412765l-53.0902,0c-2.919961,0 -5.30902,2.389059 -5.30902,5.30902l0,16.56547l16.326564,0l3.567661,-9.127533c0.407467,-1.041895 1.452017,-1.724104 2.540366,-1.686941c1.117549,0.0292 2.09839,0.755208 2.45144,1.815685l5.047551,15.179815l5.447054,-12.957991c0.400831,-0.951642 1.316637,-1.584742 2.349241,-1.623233c1.064459,-0.045127 1.993537,0.525593 2.462058,1.445381l3.551734,6.956143l3.595534,0c1.46529,0 2.65451,1.18922 2.65451,2.65451s-1.18922,2.65451 -2.65451,2.65451l-5.221421,0c-0.998096,0 -1.90992,-0.558774 -2.363841,-1.446708l-1.69225,-3.31681l-5.97132,14.201628c-0.415431,0.987478 -1.381672,1.625887 -2.446131,1.625887c-0.034509,0 -0.069017,0 -0.103526,-0.002655c-1.105603,-0.041145 -2.067863,-0.764499 -2.416931,-1.814358l-4.958625,-14.91171l-1.552888,3.975129c-0.398176,1.018005 -1.379018,1.688268 -2.472676,1.688268l-18.139594,0l0,16.680941c0,2.919961 2.389059,5.30902 5.30902,5.30902l53.0902,0c2.919961,0 5.30902,-2.389059 5.30902,-5.30902l0,-38.556758c0,-2.918634 -2.389059,-5.307693 -5.30902,-5.307693z"/>
 </g>
</svg>